<svg width="95" height="44" viewBox="0 0 95 44" fill="none" xmlns="http://www.w3.org/2000/svg">
<path d="M16.4437 30.6849L16.1747 28.8674H16.0746C15.0651 30.147 13.3477 31.0552 11.2274 31.0552C7.93 31.0552 6.0752 28.6648 6.0752 26.1743C6.0752 22.0339 9.74637 19.9474 15.8033 19.98V19.711C15.8033 18.634 15.3667 16.8502 12.4721 16.8502C10.856 16.8502 9.17119 17.3555 8.0604 18.0611L7.25351 15.3703C8.46792 14.6286 10.587 13.9219 13.1812 13.9219C18.4312 13.9219 19.9437 17.2542 19.9437 20.8229V26.746C19.9437 28.2282 20.0112 29.6754 20.1801 30.6849H16.4425H16.4437ZM15.9046 22.6731C12.9763 22.6067 10.183 23.2471 10.183 25.7376C10.183 27.3537 11.2263 28.0931 12.5385 28.0931C14.1895 28.0931 15.3993 27.0161 15.7684 25.8378C15.872 25.535 15.9046 25.1974 15.9046 24.9296V22.6742V22.6731Z" fill="#FA4C06"/>
<path d="M28.0559 11.9719V14.2925H31.9937V17.3908H28.0559V24.6284C28.0559 26.6124 28.5927 27.6556 30.1773 27.6556C30.8841 27.6556 31.4255 27.5543 31.7934 27.4554L31.8586 30.6189C31.2555 30.8529 30.1773 31.0241 28.864 31.0241C27.348 31.0241 26.0672 30.5199 25.2964 29.6769C24.4197 28.7338 24.0156 27.2528 24.0156 25.0987V17.3908H21.6602V14.2925H24.0156V11.377L28.0559 11.9731V11.9719Z" fill="#FA4C06"/>
<path d="M49.6985 22.3389C49.6985 28.3632 45.458 31.0552 41.2838 31.0552C36.6392 31.0552 33.0693 27.8567 33.0693 22.6067C33.0693 17.3567 36.6043 13.9219 41.5527 13.9219C46.5012 13.9219 49.6985 17.3555 49.6985 22.3389ZM37.3448 22.5054C37.3448 25.6689 38.8934 28.0605 41.4165 28.0605C43.7755 28.0605 45.423 25.7388 45.423 22.4379C45.423 19.881 44.2785 16.9503 41.4503 16.9503C38.6221 16.9503 37.3436 19.7797 37.3436 22.5054H37.3448Z" fill="#FA4C06"/>
<path d="M52.2905 19.7459C52.2905 17.5919 52.2242 15.8419 52.1543 14.2921H55.7882L55.992 16.8164H56.0607C57.2716 14.9651 59.1893 13.9219 61.681 13.9219C65.4511 13.9219 68.5797 17.1541 68.5797 22.2702C68.5797 28.1944 64.8433 31.0552 61.1093 31.0552C59.0554 31.0552 57.3403 30.1808 56.4973 28.8674H56.4309V35.4669H52.2917V19.7459H52.2905ZM56.4298 23.8188C56.4298 24.2217 56.4624 24.5931 56.566 24.9633C56.9689 26.6458 58.4499 27.8567 60.1999 27.8567C62.8232 27.8567 64.3729 25.6689 64.3729 22.4379C64.3729 19.5445 62.9606 17.1879 60.3 17.1879C58.585 17.1879 57.0026 18.4337 56.5986 20.2524C56.4961 20.5889 56.4298 20.958 56.4298 21.2945V23.82V23.8188Z" fill="#FA4C06"/>
<path d="M75.5795 9.71432C75.5795 10.9602 74.6702 11.9347 73.2229 11.9347C71.7756 11.9347 70.9326 10.9602 70.9326 9.71432C70.9326 8.46847 71.8781 7.45898 73.259 7.45898C74.6399 7.45898 75.5457 8.43587 75.5795 9.71432ZM71.1701 30.6853V14.2914H75.3443V30.6853H71.1701Z" fill="#FA4C06"/>
<path d="M90.1346 27.2455C89.3812 27.5261 88.4533 27.7554 87.1911 27.7554C84.3652 27.7554 82.1763 25.8378 82.1763 22.4717C82.1425 19.477 84.0287 17.1529 87.1911 17.1529C88.5441 17.1529 89.4709 17.4335 90.1346 17.713V14.3597C89.2485 14.0977 88.147 13.9219 87.056 13.9219C81.3007 13.9219 77.9346 17.7607 77.9346 22.6731C77.9346 27.5855 81.2669 31.0226 86.3842 31.0226C87.8792 31.0226 89.1903 30.7874 90.1346 30.5068V27.2455Z" fill="#FA4C06"/>
<path d="M92.9996 10.7324C91.8946 10.7324 90.998 11.6266 90.998 12.7328C90.998 13.8389 91.8946 14.7319 92.9996 14.7319C94.1045 14.7319 94.9999 13.8377 94.9999 12.7328C94.9999 11.6278 94.1034 10.7324 92.9996 10.7324ZM92.9996 14.3978C92.0797 14.3978 91.3334 13.6526 91.3334 12.7328C91.3334 11.8129 92.0797 11.0654 92.9996 11.0654C93.9194 11.0654 94.6646 11.8118 94.6646 12.7328C94.6646 13.6538 93.9182 14.3978 92.9996 14.3978Z" fill="#FA4C06"/>
<path d="M92.1273 13.6442L92.1191 11.5996H93.1694C93.3126 11.5996 93.4395 11.6229 93.5594 11.6648C93.6503 11.7126 93.7178 11.7801 93.769 11.8767C93.8214 11.971 93.8482 12.0758 93.8529 12.1853C93.8529 12.3122 93.8214 12.4216 93.7609 12.5101C93.6992 12.5998 93.6177 12.6615 93.5117 12.6941V12.7069C93.6328 12.7372 93.7108 12.7954 93.7481 12.8804C93.7842 12.9631 93.8039 13.0702 93.8074 13.1948C93.8144 13.3368 93.8179 13.4323 93.8249 13.4847C93.8331 13.5382 93.8482 13.5895 93.8785 13.6442H93.3964C93.3638 13.5941 93.3452 13.5441 93.3324 13.4905C93.3242 13.4381 93.3149 13.3438 93.3149 13.2087C93.3149 13.1063 93.2928 13.0294 93.2532 12.9759C93.2113 12.9211 93.1205 12.8932 92.9842 12.8932H92.6093V13.6442H92.1273ZM92.6093 11.9978V12.5159H93.0518C93.1636 12.5159 93.2474 12.488 93.2928 12.4379C93.3417 12.3867 93.3627 12.3285 93.3627 12.2598C93.3696 12.084 93.2614 11.9967 93.0332 11.9967H92.6093V11.9978Z" fill="#FA4C06"/>
<path d="M45.7753 43.1403C68.671 43.0623 88.0748 38.2652 94.9607 31.6738C90.6189 39.5506 69.6222 44.7832 44.6284 43.6945C40.1888 43.5024 35.8947 43.1193 31.8125 42.5791C36.2568 42.9587 40.9375 43.1578 45.7753 43.1403Z" fill="#133595"/>
<path d="M49.0061 0.630305C26.1139 1.06111 6.78347 6.16094 0 12.8571C4.22075 4.91393 25.1405 -0.642323 50.1483 0.059776C54.5879 0.184361 58.8879 0.501062 62.9817 0.979608C58.5292 0.668728 53.8474 0.54065 49.0072 0.62914L49.0061 0.630305Z" fill="#133595"/>
</svg>
