<svg width="24" height="24" viewBox="0 0 24 24" fill="none" xmlns="http://www.w3.org/2000/svg">
<path d="M14.2886 16.8095C15.413 16.525 16.4931 16.0876 17.4986 15.5095C17.8393 15.2677 18.0719 14.9021 18.1467 14.491C18.2214 14.0799 18.1324 13.6558 17.8986 13.3095C17.655 12.9733 17.2975 12.7372 16.8927 12.6452C16.4879 12.5532 16.0635 12.6116 15.6986 12.8095C14.5848 13.4962 13.302 13.8598 11.9936 13.8598C10.6851 13.8598 9.40237 13.4962 8.28856 12.8095C7.9295 12.5961 7.50122 12.5316 7.09521 12.6297C6.68921 12.7278 6.33767 12.9808 6.11571 13.3347C5.89374 13.6885 5.81895 14.1151 5.9073 14.5234C5.99566 14.9316 6.24016 15.2891 6.58857 15.5195C7.57329 16.1392 8.66012 16.5794 9.79857 16.8195L6.67856 19.9195C6.39044 20.2332 6.23056 20.6436 6.23056 21.0695C6.23056 21.4954 6.39044 21.9058 6.67856 22.2195C6.96641 22.5227 7.36089 22.702 7.77857 22.7195C8.19624 22.702 8.59072 22.5227 8.87857 22.2195L11.9886 19.2195L14.9886 22.2195C15.3022 22.5076 15.7126 22.6675 16.1386 22.6675C16.5645 22.6675 16.9749 22.5076 17.2886 22.2195C17.5768 21.9259 17.7383 21.531 17.7383 21.1195C17.7383 20.7081 17.5768 20.3131 17.2886 20.0195C17.3886 19.9195 14.2886 16.8095 14.2886 16.8095ZM11.9986 12.2995C12.722 12.3008 13.4387 12.1591 14.1072 11.8826C14.7757 11.606 15.383 11.2001 15.8941 10.688C16.4053 10.176 16.8101 9.56795 17.0855 8.8989C17.3608 8.22986 17.5012 7.513 17.4986 6.78952C17.414 5.38816 16.7978 4.07193 15.7756 3.10957C14.7534 2.14722 13.4025 1.61133 11.9986 1.61133C10.5947 1.61133 9.2437 2.14722 8.22154 3.10957C7.19938 4.07193 6.58311 5.38816 6.49856 6.78952C6.51157 8.2451 7.0949 9.63754 8.12326 10.6678C9.15162 11.698 10.543 12.2839 11.9986 12.2995ZM11.9986 4.37952C12.3017 4.37548 12.6026 4.43222 12.8835 4.54638C13.1644 4.66053 13.4195 4.8298 13.6339 5.04418C13.8483 5.25857 14.0175 5.51372 14.1317 5.79459C14.2459 6.07546 14.3026 6.37636 14.2986 6.67951C14.2986 7.29084 14.0557 7.87712 13.6234 8.3094C13.1912 8.74167 12.6049 8.98451 11.9936 8.98451C11.3822 8.98451 10.796 8.74167 10.3637 8.3094C9.93141 7.87712 9.68856 7.29084 9.68856 6.67951C9.71578 6.0775 9.96848 5.50776 10.3965 5.0835C10.8244 4.65923 11.3963 4.4115 11.9986 4.38951V4.37952Z" fill="#FA4C06"/>
</svg>
