<svg width="24" height="24" viewBox="0 0 24 24" fill="none" xmlns="http://www.w3.org/2000/svg">
<path opacity="0.3" d="M19.0003 17.47C18.1203 17.4 17.2503 17.25 16.4003 17.02L15.2103 18.21C16.4103 18.62 17.6903 18.88 19.0103 18.96V17.47H19.0003ZM5.03027 5C5.12027 6.32 5.38027 7.59 5.78027 8.8L6.98027 7.6C6.75027 6.76 6.60027 5.89 6.54027 5H5.03027Z" fill="#FA4C06"/>
<path d="M9.07 7.57C8.7 6.45 8.5 5.25 8.5 4C8.5 3.45 8.05 3 7.5 3H4C3.45 3 3 3.45 3 4C3 13.39 10.61 21 20 21C20.55 21 21 20.55 21 20V16.51C21 15.96 20.55 15.51 20 15.51C18.76 15.51 17.55 15.31 16.43 14.94C16.33 14.9 16.22 14.89 16.12 14.89C15.86 14.89 15.61 14.99 15.41 15.18L13.21 17.38C10.38 15.93 8.06 13.62 6.62 10.79L8.82 8.59C9.1 8.31 9.18 7.92 9.07 7.57ZM16.4 17.02C17.25 17.26 18.12 17.41 19 17.47V18.96C17.68 18.87 16.41 18.61 15.2 18.21L16.4 17.02ZM5.79 8.8C5.38 7.59 5.12 6.32 5.03 5H6.53C6.6 5.89 6.75 6.76 6.99 7.59L5.79 8.8Z" fill="#FA4C06"/>
</svg>
