<svg width="24" height="24" viewBox="0 0 24 24" fill="none" xmlns="http://www.w3.org/2000/svg">
<path fill-rule="evenodd" clip-rule="evenodd" d="M22.1759 7.02193C22.3243 6.52748 22.1759 6.16406 21.4701 6.16406H19.1362C18.5427 6.16406 18.2693 6.47797 18.121 6.82422C18.121 6.82422 16.934 9.71706 15.2526 11.5962C14.7087 12.1401 14.4614 12.313 14.1647 12.313C14.0163 12.313 13.8016 12.1401 13.8016 11.6457V7.02193C13.8016 6.42846 13.6294 6.16406 13.1348 6.16406H9.46726C9.09651 6.16406 8.87346 6.43946 8.87346 6.70052C8.87346 7.26315 9.71399 7.39285 9.80067 8.97522V12.4122C9.80067 13.1657 9.66464 13.3024 9.36791 13.3024C8.57672 13.3024 6.65227 10.3964 5.51067 7.07144C5.28695 6.42512 5.06257 6.16406 4.4661 6.16406H2.13222C1.4654 6.16406 1.33203 6.47797 1.33203 6.82422C1.33203 7.44236 2.12338 10.5084 5.01622 14.5634C6.94501 17.3323 9.66198 18.8337 12.1346 18.8337C13.6182 18.8337 13.8016 18.5003 13.8016 17.926V15.833C13.8016 15.1662 13.9421 15.0331 14.4118 15.0331C14.7582 15.0331 15.3515 15.2062 16.7363 16.5413C18.3187 18.1235 18.5794 18.8337 19.4696 18.8337H21.8035C22.4703 18.8337 22.8037 18.5003 22.6113 17.8423C22.4009 17.1865 21.6454 16.2352 20.6429 15.1073C20.0989 14.4643 19.2829 13.772 19.0358 13.4259C18.6896 12.9808 18.7884 12.7831 19.0358 12.3877C19.0358 12.3877 21.8792 8.38208 22.1759 7.0221V7.02193Z" fill="#FA4C06"/>
</svg>
