<svg style="display: none;" aria-hidden="true" xmlns="http://www.w3.org/2000/svg" xmlns:xlink="http://www.w3.org/1999/xlink"><symbol viewBox="0 0 40 40" fill="none" id="svg-arrow-down"><path d="M12.35 14.3164L20 21.9497L27.65 14.3164L30 16.6664L20 26.6664L10 16.6664L12.35 14.3164Z" fill="#FA4C06"/></symbol><symbol viewBox="0 0 1440 625" fill="none" id="svg-bg"><path d="M720 124.5L-4 0V500L720 624.5L1444 500V0L720 124.5Z" fill="#EEF4F9"/></symbol><symbol viewBox="0 0 95 44" fill="none" id="svg-logo"><path d="M16.4437 30.6849L16.1747 28.8674H16.0746C15.0651 30.147 13.3477 31.0552 11.2274 31.0552 7.93 31.0552 6.0752 28.6648 6.0752 26.1743 6.0752 22.0339 9.74637 19.9474 15.8033 19.98V19.711C15.8033 18.634 15.3667 16.8502 12.4721 16.8502 10.856 16.8502 9.17119 17.3555 8.0604 18.0611L7.25351 15.3703C8.46792 14.6286 10.587 13.9219 13.1812 13.9219 18.4312 13.9219 19.9437 17.2542 19.9437 20.8229V26.746C19.9437 28.2282 20.0112 29.6754 20.1801 30.6849H16.4425 16.4437zM15.9046 22.6731C12.9763 22.6067 10.183 23.2471 10.183 25.7376 10.183 27.3537 11.2263 28.0931 12.5385 28.0931 14.1895 28.0931 15.3993 27.0161 15.7684 25.8378 15.872 25.535 15.9046 25.1974 15.9046 24.9296V22.6742 22.6731zM28.0559 11.9719V14.2925H31.9937V17.3908H28.0559V24.6284C28.0559 26.6124 28.5927 27.6556 30.1773 27.6556 30.8841 27.6556 31.4255 27.5543 31.7934 27.4554L31.8586 30.6189C31.2555 30.8529 30.1773 31.0241 28.864 31.0241 27.348 31.0241 26.0672 30.5199 25.2964 29.6769 24.4197 28.7338 24.0156 27.2528 24.0156 25.0987V17.3908H21.6602V14.2925H24.0156V11.377L28.0559 11.9731V11.9719zM49.6985 22.3389C49.6985 28.3632 45.458 31.0552 41.2838 31.0552 36.6392 31.0552 33.0693 27.8567 33.0693 22.6067 33.0693 17.3567 36.6043 13.9219 41.5527 13.9219 46.5012 13.9219 49.6985 17.3555 49.6985 22.3389zM37.3448 22.5054C37.3448 25.6689 38.8934 28.0605 41.4165 28.0605 43.7755 28.0605 45.423 25.7388 45.423 22.4379 45.423 19.881 44.2785 16.9503 41.4503 16.9503 38.6221 16.9503 37.3436 19.7797 37.3436 22.5054H37.3448zM52.2905 19.7459C52.2905 17.5919 52.2242 15.8419 52.1543 14.2921H55.7882L55.992 16.8164H56.0607C57.2716 14.9651 59.1893 13.9219 61.681 13.9219 65.4511 13.9219 68.5797 17.1541 68.5797 22.2702 68.5797 28.1944 64.8433 31.0552 61.1093 31.0552 59.0554 31.0552 57.3403 30.1808 56.4973 28.8674H56.4309V35.4669H52.2917V19.7459H52.2905zM56.4298 23.8188C56.4298 24.2217 56.4624 24.5931 56.566 24.9633 56.9689 26.6458 58.4499 27.8567 60.1999 27.8567 62.8232 27.8567 64.3729 25.6689 64.3729 22.4379 64.3729 19.5445 62.9606 17.1879 60.3 17.1879 58.585 17.1879 57.0026 18.4337 56.5986 20.2524 56.4961 20.5889 56.4298 20.958 56.4298 21.2945V23.82 23.8188zM75.5795 9.71432C75.5795 10.9602 74.6702 11.9347 73.2229 11.9347 71.7756 11.9347 70.9326 10.9602 70.9326 9.71432 70.9326 8.46847 71.8781 7.45898 73.259 7.45898 74.6399 7.45898 75.5457 8.43587 75.5795 9.71432zM71.1701 30.6853V14.2914H75.3443V30.6853H71.1701zM90.1346 27.2455C89.3812 27.5261 88.4533 27.7554 87.1911 27.7554 84.3652 27.7554 82.1763 25.8378 82.1763 22.4717 82.1425 19.477 84.0287 17.1529 87.1911 17.1529 88.5441 17.1529 89.4709 17.4335 90.1346 17.713V14.3597C89.2485 14.0977 88.147 13.9219 87.056 13.9219 81.3007 13.9219 77.9346 17.7607 77.9346 22.6731 77.9346 27.5855 81.2669 31.0226 86.3842 31.0226 87.8792 31.0226 89.1903 30.7874 90.1346 30.5068V27.2455zM92.9996 10.7324C91.8946 10.7324 90.998 11.6266 90.998 12.7328 90.998 13.8389 91.8946 14.7319 92.9996 14.7319 94.1045 14.7319 94.9999 13.8377 94.9999 12.7328 94.9999 11.6278 94.1034 10.7324 92.9996 10.7324zM92.9996 14.3978C92.0797 14.3978 91.3334 13.6526 91.3334 12.7328 91.3334 11.8129 92.0797 11.0654 92.9996 11.0654 93.9194 11.0654 94.6646 11.8118 94.6646 12.7328 94.6646 13.6538 93.9182 14.3978 92.9996 14.3978z" fill="#FA4C06"/><path d="M92.1273 13.6442L92.1191 11.5996H93.1694C93.3126 11.5996 93.4395 11.6229 93.5594 11.6648C93.6503 11.7126 93.7178 11.7801 93.769 11.8767C93.8214 11.971 93.8482 12.0758 93.8529 12.1853C93.8529 12.3122 93.8214 12.4216 93.7609 12.5101C93.6992 12.5998 93.6177 12.6615 93.5117 12.6941V12.7069C93.6328 12.7372 93.7108 12.7954 93.7481 12.8804C93.7842 12.9631 93.8039 13.0702 93.8074 13.1948C93.8144 13.3368 93.8179 13.4323 93.8249 13.4847C93.8331 13.5382 93.8482 13.5895 93.8785 13.6442H93.3964C93.3638 13.5941 93.3452 13.5441 93.3324 13.4905C93.3242 13.4381 93.3149 13.3438 93.3149 13.2087C93.3149 13.1063 93.2928 13.0294 93.2532 12.9759C93.2113 12.9211 93.1205 12.8932 92.9842 12.8932H92.6093V13.6442H92.1273ZM92.6093 11.9978V12.5159H93.0518C93.1636 12.5159 93.2474 12.488 93.2928 12.4379C93.3417 12.3867 93.3627 12.3285 93.3627 12.2598C93.3696 12.084 93.2614 11.9967 93.0332 11.9967H92.6093V11.9978Z" fill="#FA4C06"/><path d="M45.7753 43.1403C68.671 43.0623 88.0748 38.2652 94.9607 31.6738 90.6189 39.5506 69.6222 44.7832 44.6284 43.6945 40.1888 43.5024 35.8947 43.1193 31.8125 42.5791 36.2568 42.9587 40.9375 43.1578 45.7753 43.1403zM49.0061.630305C26.1139 1.06111 6.78347 6.16094 0 12.8571 4.22075 4.91393 25.1405-.642323 50.1483.059776 54.5879.184361 58.8879.501062 62.9817.979608 58.5292.668728 53.8474.54065 49.0072.62914L49.0061.630305z" fill="#133595"/></symbol><symbol viewBox="0 0 24 24" fill="none" id="svg-odnoklasniki"><path d="M14.2886 16.8095C15.413 16.525 16.4931 16.0876 17.4986 15.5095C17.8393 15.2677 18.0719 14.9021 18.1467 14.491C18.2214 14.0799 18.1324 13.6558 17.8986 13.3095C17.655 12.9733 17.2975 12.7372 16.8927 12.6452C16.4879 12.5532 16.0635 12.6116 15.6986 12.8095C14.5848 13.4962 13.302 13.8598 11.9936 13.8598C10.6851 13.8598 9.40237 13.4962 8.28856 12.8095C7.9295 12.5961 7.50122 12.5316 7.09521 12.6297C6.68921 12.7278 6.33767 12.9808 6.11571 13.3347C5.89374 13.6885 5.81895 14.1151 5.9073 14.5234C5.99566 14.9316 6.24016 15.2891 6.58857 15.5195C7.57329 16.1392 8.66012 16.5794 9.79857 16.8195L6.67856 19.9195C6.39044 20.2332 6.23056 20.6436 6.23056 21.0695C6.23056 21.4954 6.39044 21.9058 6.67856 22.2195C6.96641 22.5227 7.36089 22.702 7.77857 22.7195C8.19624 22.702 8.59072 22.5227 8.87857 22.2195L11.9886 19.2195L14.9886 22.2195C15.3022 22.5076 15.7126 22.6675 16.1386 22.6675C16.5645 22.6675 16.9749 22.5076 17.2886 22.2195C17.5768 21.9259 17.7383 21.531 17.7383 21.1195C17.7383 20.7081 17.5768 20.3131 17.2886 20.0195C17.3886 19.9195 14.2886 16.8095 14.2886 16.8095ZM11.9986 12.2995C12.722 12.3008 13.4387 12.1591 14.1072 11.8826C14.7757 11.606 15.383 11.2001 15.8941 10.688C16.4053 10.176 16.8101 9.56795 17.0855 8.8989C17.3608 8.22986 17.5012 7.513 17.4986 6.78952C17.414 5.38816 16.7978 4.07193 15.7756 3.10957C14.7534 2.14722 13.4025 1.61133 11.9986 1.61133C10.5947 1.61133 9.2437 2.14722 8.22154 3.10957C7.19938 4.07193 6.58311 5.38816 6.49856 6.78952C6.51157 8.2451 7.0949 9.63754 8.12326 10.6678C9.15162 11.698 10.543 12.2839 11.9986 12.2995ZM11.9986 4.37952C12.3017 4.37548 12.6026 4.43222 12.8835 4.54638C13.1644 4.66053 13.4195 4.8298 13.6339 5.04418C13.8483 5.25857 14.0175 5.51372 14.1317 5.79459C14.2459 6.07546 14.3026 6.37636 14.2986 6.67951C14.2986 7.29084 14.0557 7.87712 13.6234 8.3094C13.1912 8.74167 12.6049 8.98451 11.9936 8.98451C11.3822 8.98451 10.796 8.74167 10.3637 8.3094C9.93141 7.87712 9.68856 7.29084 9.68856 6.67951C9.71578 6.0775 9.96848 5.50776 10.3965 5.0835C10.8244 4.65923 11.3963 4.4115 11.9986 4.38951V4.37952Z" fill="#FA4C06"/></symbol><symbol viewBox="0 0 24 24" fill="none" id="svg-phone"><path opacity=".3" d="M19.0003 17.47C18.1203 17.4 17.2503 17.25 16.4003 17.02L15.2103 18.21C16.4103 18.62 17.6903 18.88 19.0103 18.96V17.47H19.0003ZM5.03027 5C5.12027 6.32 5.38027 7.59 5.78027 8.8L6.98027 7.6C6.75027 6.76 6.60027 5.89 6.54027 5H5.03027Z" fill="#FA4C06"/><path d="M9.07 7.57C8.7 6.45 8.5 5.25 8.5 4C8.5 3.45 8.05 3 7.5 3H4C3.45 3 3 3.45 3 4C3 13.39 10.61 21 20 21C20.55 21 21 20.55 21 20V16.51C21 15.96 20.55 15.51 20 15.51C18.76 15.51 17.55 15.31 16.43 14.94C16.33 14.9 16.22 14.89 16.12 14.89C15.86 14.89 15.61 14.99 15.41 15.18L13.21 17.38C10.38 15.93 8.06 13.62 6.62 10.79L8.82 8.59C9.1 8.31 9.18 7.92 9.07 7.57ZM16.4 17.02C17.25 17.26 18.12 17.41 19 17.47V18.96C17.68 18.87 16.41 18.61 15.2 18.21L16.4 17.02ZM5.79 8.8C5.38 7.59 5.12 6.32 5.03 5H6.53C6.6 5.89 6.75 6.76 6.99 7.59L5.79 8.8Z" fill="#FA4C06"/></symbol><symbol viewBox="0 0 22 22" fill="none" id="svg-r"><path d="M9.51009 12.432H10.5879C11.7291 12.432 12.2997 12.8876 12.4899 13.9941C12.7435 15.1006 12.9337 16.0118 13.2507 16.4024H16.2939C16.1037 16.0118 15.9135 15.3609 15.5965 13.8639C15.2795 12.432 14.7089 11.5858 13.6311 11.1953V11.0651C14.8991 10.6746 15.8501 9.76331 15.8501 8.59171C15.8501 7.5503 15.4063 6.76923 14.7723 6.3787C14.0749 5.85799 13.1239 5.53254 10.9683 5.53254C9.00288 5.53254 7.54467 5.72781 6.72046 5.92308V16.4024H9.51009V12.432ZM9.57349 7.61538C9.82709 7.61538 10.2709 7.5503 10.7781 7.5503C12.0461 7.5503 12.7435 8.07101 12.7435 8.98225C12.7435 9.95858 11.8559 10.4142 10.5879 10.4142H9.57349V7.61538ZM11.0951 0C4.94524 0 0 4.88166 0 10.9349C0 17.1183 4.94524 22 11.0317 22C17.1816 22 22 17.1183 22 10.9349C22 4.88166 17.1816 0 11.0951 0ZM10.9049 2.53846C15.5965 2.53846 18.9568 6.24852 18.9568 11C18.9568 15.6864 15.5965 19.5266 11.0317 19.4615C6.46686 19.4615 3.04323 15.6864 3.04323 11C3.04323 6.24852 6.46686 2.53846 10.9049 2.53846Z" fill="#FA4C06"/></symbol><symbol viewBox="0 0 24 24" fill="none" id="svg-vk"><path fill-rule="evenodd" clip-rule="evenodd" d="M22.1759 7.02193C22.3243 6.52748 22.1759 6.16406 21.4701 6.16406H19.1362C18.5427 6.16406 18.2693 6.47797 18.121 6.82422C18.121 6.82422 16.934 9.71706 15.2526 11.5962C14.7087 12.1401 14.4614 12.313 14.1647 12.313C14.0163 12.313 13.8016 12.1401 13.8016 11.6457V7.02193C13.8016 6.42846 13.6294 6.16406 13.1348 6.16406H9.46726C9.09651 6.16406 8.87346 6.43946 8.87346 6.70052C8.87346 7.26315 9.71399 7.39285 9.80067 8.97522V12.4122C9.80067 13.1657 9.66464 13.3024 9.36791 13.3024C8.57672 13.3024 6.65227 10.3964 5.51067 7.07144C5.28695 6.42512 5.06257 6.16406 4.4661 6.16406H2.13222C1.4654 6.16406 1.33203 6.47797 1.33203 6.82422C1.33203 7.44236 2.12338 10.5084 5.01622 14.5634C6.94501 17.3323 9.66198 18.8337 12.1346 18.8337C13.6182 18.8337 13.8016 18.5003 13.8016 17.926V15.833C13.8016 15.1662 13.9421 15.0331 14.4118 15.0331C14.7582 15.0331 15.3515 15.2062 16.7363 16.5413C18.3187 18.1235 18.5794 18.8337 19.4696 18.8337H21.8035C22.4703 18.8337 22.8037 18.5003 22.6113 17.8423C22.4009 17.1865 21.6454 16.2352 20.6429 15.1073C20.0989 14.4643 19.2829 13.772 19.0358 13.4259C18.6896 12.9808 18.7884 12.7831 19.0358 12.3877C19.0358 12.3877 21.8792 8.38208 22.1759 7.0221V7.02193Z" fill="#FA4C06"/></symbol></svg>