<svg width="22" height="22" viewBox="0 0 22 22" fill="none" xmlns="http://www.w3.org/2000/svg">
<path d="M9.51009 12.432H10.5879C11.7291 12.432 12.2997 12.8876 12.4899 13.9941C12.7435 15.1006 12.9337 16.0118 13.2507 16.4024H16.2939C16.1037 16.0118 15.9135 15.3609 15.5965 13.8639C15.2795 12.432 14.7089 11.5858 13.6311 11.1953V11.0651C14.8991 10.6746 15.8501 9.76331 15.8501 8.59171C15.8501 7.5503 15.4063 6.76923 14.7723 6.3787C14.0749 5.85799 13.1239 5.53254 10.9683 5.53254C9.00288 5.53254 7.54467 5.72781 6.72046 5.92308V16.4024H9.51009V12.432ZM9.57349 7.61538C9.82709 7.61538 10.2709 7.5503 10.7781 7.5503C12.0461 7.5503 12.7435 8.07101 12.7435 8.98225C12.7435 9.95858 11.8559 10.4142 10.5879 10.4142H9.57349V7.61538ZM11.0951 0C4.94524 0 0 4.88166 0 10.9349C0 17.1183 4.94524 22 11.0317 22C17.1816 22 22 17.1183 22 10.9349C22 4.88166 17.1816 0 11.0951 0ZM10.9049 2.53846C15.5965 2.53846 18.9568 6.24852 18.9568 11C18.9568 15.6864 15.5965 19.5266 11.0317 19.4615C6.46686 19.4615 3.04323 15.6864 3.04323 11C3.04323 6.24852 6.46686 2.53846 10.9049 2.53846Z" fill="#FA4C06"/>
</svg>
